<svg xmlns="http://www.w3.org/2000/svg" id="Layer_2" data-name="Layer 2" viewBox="0 0 855.04 1075.24">
  <defs>
    <style>
      .cls-1 {
        fill: #56cc99;
      }

      .cls-1, .cls-2 {
        fill-rule: evenodd;
      }

      .cls-1, .cls-2, .cls-3, .cls-4 {
        stroke-width: 0px;
      }

      .cls-2 {
        fill: #215679;
      }

      .cls-3 {
        fill: #fff;
      }

      .cls-4 {
        fill: #212121;
      }
    </style>
  </defs>
  <g id="main_logo" data-name="main logo">
      <g>
        <path class="cls-1" d="m271.95,659.55c42.35-21.97,90.4-20.32,131.33,3.6,1.25.74,2.66.74,3.91,0,1.25-.71,1.96-1.96,1.96-3.37v-98.87c0-1.05-.34-1.93-1.05-2.66-50.91-53.72-130.14-69.25-197.43-39-1.93.88-2.83,3.15-1.98,5.13l57.88,133.26c.45,1.02,1.22,1.76,2.3,2.15,1.02.37,2.1.28,3.09-.23h0Zm286.13,0h0c-42.35-21.97-90.42-20.32-131.33,3.6-1.25.74-2.66.74-3.91,0-1.25-.71-1.96-1.96-1.96-3.37v-98.87c0-1.05.34-1.93,1.08-2.66,50.88-53.72,130.11-69.25,197.4-39,1.93.88,2.84,3.15,1.98,5.13l-57.88,133.26c-.45,1.02-1.22,1.76-2.27,2.15-1.08.37-2.13.28-3.12-.23h0Z"/>
        <path class="cls-2" d="m437.47,695.12c33.19-28.8,78.63-22.76,115.6-5.07,1.22.6,2.58.51,3.74-.23,1.19-.71,1.84-1.9,1.84-3.29v-11.08c0-1.45-.71-2.69-2.01-3.43-42.97-24.15-92.75-21.09-133.26,7.14-3.66,2.58-13.04,2.58-16.72,0-40.51-28.23-90.25-31.29-133.26-7.14-1.28.74-2.01,1.98-2.01,3.43v11.08c0,1.39.65,2.58,1.84,3.29,1.16.74,2.52.82,3.77.23,36.94-17.69,82.38-23.73,115.57,5.07.03.03.09.06.11.08,12.93,10.43,31.75,10.43,44.67,0,.03-.03.08-.06.11-.08h0Z"/>
        <path class="cls-2" d="m570.7,670.29l46.38-106.81c.74-1.7,2.55-2.64,4.39-2.27,1.81.4,3.09,1.96,3.09,3.83v35.04c0,.68-.14,1.28-.45,1.87l-46.4,85.18c-.88,1.59-2.64,2.38-4.39,1.93-1.73-.45-2.92-1.98-2.92-3.8v-13.41c0-.57.08-1.05.31-1.56h0Z"/>
        <path class="cls-2" d="m259.34,670.29l-46.37-106.81c-.74-1.7-2.55-2.64-4.37-2.27-1.84.4-3.12,1.96-3.12,3.83v35.04c0,.68.14,1.28.48,1.87l46.37,85.18c.88,1.59,2.64,2.38,4.39,1.93,1.73-.45,2.95-1.98,2.95-3.8v-13.41c0-.57-.11-1.05-.34-1.56h0Z"/>
        <path class="cls-2" d="m62.56,180.26c151.34,84.53,254.72,26.87,310.17-172.94,1.3-4.82,5.95-7.91,10.91-7.23,4.96.65,8.62,4.76,8.7,9.72,3.69,243.92-126.94,465.65-330.69,583.94-4.37,2.52-9.84,1.45-12.93-2.52-3.12-4.03-2.75-9.64.85-13.21,67.01-66.7,94.73-138.22,83.14-214.53-.31-2.18.77-4.25,2.78-5.24,1.98-.96,4.28-.54,5.81,1.08,13.49,14.29,26.79,28.74,39.91,43.43,1.64,1.79,4.25,2.18,6.35.91,2.07-1.28,2.92-3.8,2.04-6.09-29.76-75.6-73.39-130.22-139.72-202.31-7.4-8.05,3.12-20.32,12.67-15h0Z"/>
        <path class="cls-2" d="m249.39,143.67c-17.55,24.63-51.73,30.36-76.34,12.81-24.6-17.55-30.33-51.7-12.78-76.34,17.55-24.6,51.7-30.33,76.31-12.78,24.63,17.52,30.36,51.7,12.81,76.31h0Z"/>
        <path class="cls-2" d="m767.48,180.26c-151.34,84.53-254.72,26.87-310.14-172.94-1.33-4.82-5.98-7.91-10.94-7.23-4.96.65-8.62,4.76-8.7,9.72-3.68,243.92,126.94,465.65,330.69,583.94,4.39,2.52,9.84,1.45,12.93-2.52,3.12-4.03,2.75-9.64-.85-13.21-67.01-66.7-94.71-138.22-83.14-214.53.31-2.18-.77-4.25-2.78-5.24-1.96-.96-4.28-.54-5.78,1.08-13.49,14.29-26.82,28.74-39.94,43.43-1.62,1.79-4.25,2.18-6.35.91-2.07-1.28-2.92-3.8-2.01-6.09,29.74-75.6,73.39-130.22,139.69-202.31,7.4-8.05-3.12-20.32-12.67-15h0Z"/>
        <path class="cls-2" d="m580.65,143.67c17.55,24.63,51.73,30.36,76.34,12.81,24.61-17.55,30.36-51.7,12.79-76.34-17.52-24.6-51.7-30.33-76.31-12.78-24.63,17.52-30.36,51.7-12.81,76.31h0Z"/>
        <path class="cls-1" d="m422.47,314.14l16.07,49.78c1.08,3.29,4,5.44,7.46,5.41l52.36-.08c3.43,0,6.41,2.13,7.45,5.41,1.08,3.29-.06,6.75-2.86,8.76l-42.38,30.67c-2.81,2.04-3.94,5.5-2.86,8.79l16.27,49.75c1.08,3.29-.06,6.75-2.83,8.76-2.81,2.04-6.43,2.04-9.24,0l-42.26-30.84c-2.81-2.04-6.43-2.04-9.24,0l-42.26,30.84c-2.78,2.04-6.44,2.04-9.24,0-2.78-2.01-3.91-5.47-2.81-8.76l16.24-49.75c1.08-3.29-.06-6.75-2.86-8.79l-42.38-30.67c-2.81-2.01-3.94-5.47-2.86-8.76,1.08-3.29,4-5.41,7.46-5.41l52.36.08c3.46.03,6.38-2.13,7.46-5.41l16.07-49.78c1.08-3.29,4-5.44,7.46-5.44s6.38,2.15,7.46,5.44h0Z"/>
        <path class="cls-3" d="m335.97,596.31c.08.17.12.42.12.75,0,.5-.38,1.25-1.13,2.26-.25.33-.79.88-1.63,1.63-.84.75-1.96,1.5-3.38,2.26-1.42.75-3.15,1.42-5.2,2.01-2.05.58-4.45.88-7.21.88-1.92,0-3.8-.44-5.64-1.32-1.84-.88-3.47-2.17-4.89-3.89-1.42-1.71-2.59-3.84-3.51-6.39-.92-2.55-1.38-5.53-1.38-8.96s.42-6.31,1.25-9.15c.83-2.84,1.9-5.35,3.2-7.52,1.29-2.17,2.74-3.88,4.32-5.14,1.59-1.25,3.13-1.88,4.64-1.88,1.34,0,2.69.27,4.07.81,1.38.54,2.63,1.23,3.76,2.07,1.13.84,2.02,1.78,2.69,2.82.67,1.05,1,2.11,1,3.2,0,1.25-.56,2.55-1.69,3.88-1.13,1.34-2.49,2.57-4.07,3.7-1.59,1.13-3.18,2.05-4.76,2.76-1.59.71-2.84,1.07-3.76,1.07-.5,0-.94-.23-1.32-.69-.38-.46-.56-1.02-.56-1.69,0-1.17.52-2.09,1.57-2.76,1.04-.67,2.19-1.27,3.45-1.82,1.25-.54,2.4-1.19,3.45-1.94,1.04-.75,1.57-1.8,1.57-3.13,0-.17-.21-.58-.63-1.25-.42-.67-1.55-1-3.38-1-.84,0-1.8.48-2.88,1.44-1.09.96-2.13,2.26-3.13,3.88-1,1.63-1.84,3.55-2.51,5.76-.67,2.21-1,4.62-1,7.21,0,2.17.4,4.14,1.19,5.89.79,1.75,1.82,3.24,3.07,4.45,1.25,1.21,2.71,2.15,4.39,2.82,1.67.67,3.38,1,5.14,1,1.25,0,2.61-.27,4.07-.81,1.46-.54,2.84-1.13,4.14-1.75,1.29-.63,2.42-1.21,3.38-1.75.96-.54,1.57-.81,1.82-.81s.52.13.81.38c.29.25.48.5.56.75Z"/>
        <path class="cls-3" d="m523.15,593.18c0,3.76-.67,6.71-2,8.84-1.34,2.13-3.3,4.12-5.89,5.95-.67.42-1.59.92-2.76,1.5-1.17.59-2.47,1.13-3.89,1.63-1.42.5-2.92.92-4.51,1.25-1.59.33-3.05.5-4.39.5-3.76,0-6.6-.4-8.52-1.19-1.92-.79-2.88-1.73-2.88-2.82,0-1.17.33-2.13,1-2.88.67-.75,1.25-1.17,1.75-1.25l1.38,1c.42.42,1,.86,1.75,1.32.75.46,1.96.69,3.63.69,1.59,0,3.51-.27,5.76-.82,2.26-.54,4.41-1.38,6.45-2.51,2.05-1.13,3.8-2.53,5.26-4.2,1.46-1.67,2.19-3.59,2.19-5.76,0-1.92-1.44-3.7-4.32-5.33-2.88-1.63-7.42-2.74-13.6-3.32-3.18-.25-6.31-.65-9.4-1.19-3.09-.54-5.87-1.29-8.33-2.26-2.47-.96-4.45-2.17-5.95-3.63-1.5-1.46-2.26-3.28-2.26-5.45s.58-4.09,1.75-6.02c1.17-1.92,2.61-3.7,4.32-5.33,1.71-1.63,3.49-3.07,5.33-4.32,1.84-1.25,3.38-2.3,4.64-3.13,1-.58,2.4-1.36,4.2-2.32,1.79-.96,3.72-1.88,5.76-2.76,2.05-.88,4.09-1.63,6.14-2.26,2.05-.63,3.78-.94,5.2-.94,1.67,0,2.8.46,3.38,1.38.58.92.88,2.21.88,3.88,0,1.42-.17,2.93-.5,4.51-.33,1.59-.71,3.13-1.13,4.64-.42,1.5-.81,2.82-1.19,3.95-.38,1.13-.65,1.86-.82,2.19-.33.75-.71,1.25-1.13,1.5-.42.25-.71.38-.88.38-.33,0-.5-.21-.5-.63,0-.25.06-.73.19-1.44.13-.71.29-1.57.5-2.57.21-1,.38-2.09.5-3.26.12-1.17.19-2.34.19-3.51,0-1.84-.08-3.17-.25-4.01-.17-.83-.84-1.25-2.01-1.25s-2.76.31-4.76.94c-2,.63-4.05,1.4-6.14,2.32-2.26,1-4.45,2.3-6.58,3.88-2.13,1.59-4.03,3.22-5.7,4.89-1.67,1.67-3.03,3.28-4.07,4.83-1.04,1.55-1.57,2.78-1.57,3.7,0,1,.69,1.94,2.07,2.82,1.38.88,3.13,1.65,5.26,2.32,2.13.67,4.49,1.25,7.08,1.75,2.59.5,5.14.88,7.65,1.13,2.09.25,4.39.58,6.89,1,2.51.42,4.84,1.09,7.02,2.01,2.17.92,4.01,2.15,5.51,3.7,1.5,1.55,2.26,3.53,2.26,5.95Z"/>
      </g>
  </g>
</svg>